<svg width="327" height="92" viewBox="0 0 327 92" fill="none" xmlns="http://www.w3.org/2000/svg">
<g clip-path="url(#clip0)" filter="url(#filter0_d)">
<path d="M134.704 21.9229H129.206L119.655 55.3844H130.363L138.467 27.1152C138.756 25.6729 138.756 24.519 137.888 23.3652C137.019 22.4998 136.151 21.9229 134.704 21.9229Z" fill="white"/>
<path d="M141.94 14.4229C141.071 17.3076 137.888 19.6153 134.994 19.6153C132.1 19.6153 130.363 17.3076 131.232 14.4229C132.1 11.5383 135.283 9.23064 138.177 9.23064C141.071 8.94218 142.808 11.2499 141.94 14.4229Z" fill="white"/>
<path d="M185.639 19.9038C183.613 19.9038 181.298 20.1923 179.562 21.0577C178.694 21.3461 177.825 21.923 176.957 22.5L179.272 13.8461C179.562 12.4038 179.562 11.25 178.694 10.0961C177.825 9.23073 176.957 8.65381 175.51 8.65381H170.301L156.988 55.0961H167.407L172.616 37.2115C173.484 34.3269 174.642 32.3077 176.089 31.1538C177.536 29.7115 178.983 29.1346 181.009 29.1346C182.745 29.1346 183.903 29.7115 184.482 31.1538C185.06 32.5961 185.06 34.6153 184.192 37.2115L178.983 55.0961H189.401L194.321 37.5C195.768 32.3077 195.768 27.9807 194.032 24.5192C192.585 21.6346 189.691 19.9038 185.639 19.9038Z" fill="white"/>
<path d="M280.274 19.9038C275.065 19.9038 270.435 21.3461 266.383 23.9423C264.647 21.3461 262.042 19.9038 258.28 19.9038C256.254 19.9038 253.939 20.1923 252.202 21.0577C251.045 21.6346 249.887 22.2115 249.019 23.0769C249.019 22.5 248.73 21.923 248.44 21.6346C247.861 20.7692 246.704 20.1923 245.257 20.1923H240.047L229.629 55.3846H240.047L245.257 37.5C246.125 34.6154 247.282 32.5961 248.73 31.4423C250.177 30 251.624 29.423 253.649 29.423C255.386 29.423 256.543 30 257.122 31.4423C257.701 32.8846 257.701 34.9038 256.833 37.5L251.624 55.3846H262.042L267.251 37.5C268.12 34.6154 269.277 32.5961 270.724 31.4423C272.171 30 273.618 29.423 275.644 29.423C277.38 29.423 278.538 30 279.117 31.4423C279.696 32.8846 279.696 34.9038 278.827 37.5L273.618 55.3846H284.037L288.957 37.7884C290.404 32.5961 290.404 28.2692 288.667 24.8077C287.22 21.6346 284.326 19.9038 280.274 19.9038Z" fill="white"/>
<path d="M197.505 40.0961L203.293 19.9038H213.711L207.923 40.0961C206.187 46.1538 211.975 46.1538 211.975 46.1538C211.975 46.1538 217.763 46.4423 219.5 40.0961L225.288 19.9038H235.417L229.629 40.0961C224.998 55.9615 209.081 55.3846 209.081 55.3846C209.081 55.3846 192.874 56.25 197.505 40.0961Z" fill="white"/>
<path d="M324.843 37.7884C326.29 32.5961 326.29 28.2692 324.553 24.8077C322.817 21.6346 319.923 19.9038 315.871 19.9038C313.845 19.9038 311.53 20.1923 309.794 21.0577C308.926 21.3461 308.057 21.923 307.189 22.5L309.504 13.8461C309.794 12.4038 309.794 11.25 308.926 10.0961C308.057 9.23073 307.189 8.65381 305.742 8.65381H300.533L291.851 39.5192C286.931 56.25 304.006 55.0961 304.006 55.0961C304.006 55.0961 319.633 55.673 324.843 37.7884ZM314.424 37.5C313.556 40.3846 312.398 42.4038 310.951 44.1346C309.504 45.5769 308.057 46.1538 306.032 46.1538C304.295 46.1538 303.137 45.5769 302.559 44.1346C301.98 42.6923 301.98 40.673 302.848 37.5C303.716 34.6153 304.874 32.5961 306.321 31.4423C307.768 30 309.215 29.423 311.241 29.423C312.977 29.423 314.135 30 314.714 31.4423C315.292 32.8846 315.292 34.9038 314.424 37.5Z" fill="white"/>
<path d="M157.567 14.1347C157.857 12.6924 157.857 11.5385 156.988 10.3847C156.12 9.23084 155.252 8.94238 153.805 8.94238H148.596L137.309 48.1732C135.862 53.6539 138.467 54.8078 141.071 55.0962C142.808 55.0962 145.123 55.3847 147.149 55.3847C148.596 55.3847 149.753 55.3847 150.911 55.3847H152.069L154.384 47.0193H149.753C148.596 47.0193 148.596 46.4424 148.596 46.1539L153.516 29.1347H154.963C156.41 29.1347 157.857 28.5578 159.014 27.6924C160.461 26.827 161.329 25.3847 161.619 23.9424L162.487 21.0578H156.12L157.567 14.1347Z" fill="white"/>
<path d="M120.813 37.7885C122.26 32.5962 122.26 28.2693 120.524 24.8078C118.787 21.6347 115.893 19.9039 111.842 19.9039C109.816 19.9039 107.501 20.1924 105.764 21.0578C104.896 21.3462 104.028 21.9232 103.159 22.5001L105.475 13.8462C106.054 12.6924 106.054 11.5385 105.185 10.3847C104.317 9.51931 103.449 8.94238 102.002 8.94238H96.7926L88.1105 39.8078C83.1907 56.5385 100.265 55.3847 100.265 55.3847C100.265 55.3847 115.604 55.6732 120.813 37.7885ZM110.395 37.5001C109.526 40.3847 108.369 42.4039 106.922 44.1347C105.475 45.577 104.028 46.1539 102.002 46.1539C100.265 46.1539 99.1078 45.577 98.529 44.1347C97.9502 42.6924 97.9502 40.6732 98.8184 37.5001C99.6866 34.6155 100.844 32.5962 102.291 31.4424C103.738 30.0001 105.185 29.4232 107.211 29.4232C108.948 29.4232 110.105 30.0001 110.684 31.4424C111.263 32.8847 111.263 34.9039 110.395 37.5001Z" fill="white"/>
<path d="M322.238 79.0385H264.357C262.621 79.0385 261.463 77.8847 261.463 76.1539C261.463 74.4231 262.621 73.2693 264.357 73.2693H322.238C323.974 73.2693 325.132 74.4231 325.132 76.1539C325.132 77.8847 323.685 79.0385 322.238 79.0385Z" fill="white"/>
<path d="M148.595 79.0385H90.7148C88.9784 79.0385 87.8208 77.8847 87.8208 76.1539C87.8208 74.4231 88.9784 73.2693 90.7148 73.2693H148.595C150.332 73.2693 151.49 74.4231 151.49 76.1539C151.49 77.8847 150.043 79.0385 148.595 79.0385Z" fill="white"/>
<path d="M194.266 76.4878C194.266 73.2972 194.536 70.7048 192.052 68.3403C190.585 66.9444 188.52 66.3462 186.305 66.3462H178.404V86.6293H186.305C188.52 86.6293 190.585 86.0311 192.052 84.6352C194.536 82.2707 194.266 79.6784 194.266 76.4878ZM189.029 76.4878C189.029 79.9348 188.879 80.476 188.46 81.0458C187.981 81.7295 187.263 82.1853 185.946 82.1853H183.642V70.7903H185.946C187.263 70.7903 187.981 71.2461 188.46 71.9298C188.879 72.4995 189.029 73.0693 189.029 76.4878Z" fill="white"/>
<path d="M212.233 86.6293V82.1853H202.985V78.6243H210.886V74.1803H202.985V70.7903H212.233V66.3462H197.748V85.6293C197.748 86.1816 198.195 86.6293 198.748 86.6293H212.233Z" fill="white"/>
<path d="M234.278 86.6293L227.634 76.2314L233.859 66.3462H227.903L224.79 72.0722L221.678 66.3462H215.722L221.947 76.2314L215.303 86.6293H221.289L224.79 80.3906L228.292 86.6293H234.278Z" fill="white"/>
<path d="M43.3086 8.65736C43.6977 6.42619 43.2932 4.55652 42.0951 2.88462C40.6481 0.865385 38.6223 0 35.7282 0H21.258L4.18325 59.7115C-5.36706 92.3077 27.9143 90 27.9143 90C27.9143 90 58.0123 90.5769 67.852 55.9615C70.746 45.8654 70.746 37.5 67.5626 30.8654C64.3792 24.5192 58.5911 21.3462 50.7772 21.3462H41.5873L34.5838 45.8654H39.4905C41.5163 45.8654 42.9633 46.4423 43.5421 48.1731C44.4103 49.9039 44.1209 52.2115 43.2527 55.3846C42.3845 58.8462 40.9375 61.4423 39.2011 63.1731C37.4646 64.9038 35.7282 65.4808 33.413 65.4808C31.3872 65.4808 29.9402 64.6154 29.3613 63.1731C28.7825 61.7308 28.7825 59.1346 29.9402 55.3846L32.6775 45.8654H32.6808L43.3086 8.65736Z" fill="white"/>
<path d="M13.2781 21.3462H5.63048L1.28943 36.3462C-0.257314 41.2283 2.09967 44.9659 6.31491 45.7242L13.2781 21.3462Z" fill="white"/>
</g>
<defs>
<filter id="filter0_d" x="0" y="0" width="327" height="92" filterUnits="userSpaceOnUse" color-interpolation-filters="sRGB">
<feFlood flood-opacity="0" result="BackgroundImageFix"/>
<feColorMatrix in="SourceAlpha" type="matrix" values="0 0 0 0 0 0 0 0 0 0 0 0 0 0 0 0 0 0 127 0"/>
<feOffset dy="1"/>
<feGaussianBlur stdDeviation="0.5"/>
<feColorMatrix type="matrix" values="0 0 0 0 0.839216 0 0 0 0 0.244781 0 0 0 0 0.0862745 0 0 0 1 0"/>
<feBlend mode="normal" in2="BackgroundImageFix" result="effect1_dropShadow"/>
<feBlend mode="normal" in="SourceGraphic" in2="effect1_dropShadow" result="shape"/>
</filter>
<clipPath id="clip0">
<rect width="325" height="90" fill="white" transform="translate(1)"/>
</clipPath>
</defs>
</svg>
