<svg width="50" height="50" viewBox="0 0 50 50" fill="none" xmlns="http://www.w3.org/2000/svg">
<path d="M10.0639 21.3425C9.33253 23.6581 10.6734 25.3644 12.8676 25.3644H13.9647L16.8902 15.0049H16.0369C13.7209 15.0049 11.8924 15.0049 11.8924 15.0049L10.0639 21.3425Z" fill="#D62817"/>
<path d="M37.9785 19.0265C36.6376 16.3452 34.1997 15.0045 30.9084 15.0045H24.5697L21.6442 25.364H26.1544C27.0077 25.364 27.6172 25.6078 27.861 26.3391C28.2267 27.0703 28.1048 28.0453 27.7391 29.386C27.3734 30.8485 26.7639 31.9454 26.0325 32.6766C25.3011 33.4079 24.5697 33.6516 23.5945 33.6516C22.7412 33.6516 22.1318 33.286 21.888 32.6766C21.6442 32.0672 21.6442 30.9704 22.1318 29.386L27.6172 10.2514C27.9829 9.0326 27.861 8.05759 27.2515 7.20445C26.642 6.35132 25.7887 5.98569 24.5697 5.98569H18.4748L11.2828 31.2141C7.26018 44.9861 21.2785 44.0111 21.2785 44.0111C21.2785 44.0111 33.9559 44.2549 38.1004 29.6297C39.3194 25.364 39.3194 21.8296 37.9785 19.0265Z" fill="#EC7000"/>
<path d="M38.1006 29.6301C39.3196 25.3644 39.3196 21.83 37.9787 19.0268C36.6378 16.3456 34.1998 15.0049 30.9086 15.0049H26.1546L23.229 25.3644H26.1546C27.0078 25.3644 27.6173 25.6082 27.8611 26.3394C28.2268 27.0707 28.1049 28.0457 27.7392 29.3863" fill="url(#paint0_linear)"/>
<mask id="mask0" mask-type="alpha" maskUnits="userSpaceOnUse" x="9" y="5" width="30" height="40">
<path d="M10.0639 21.3425C9.33253 23.6581 10.6734 25.3644 12.8676 25.3644H13.9647L16.8902 15.0049H16.0369C13.7209 15.0049 11.8924 15.0049 11.8924 15.0049L10.0639 21.3425Z" fill="#C4C4C4"/>
<path d="M37.9786 19.0265C36.6377 16.3452 34.1997 15.0045 30.9085 15.0045H24.5698L21.6442 25.364H26.1545C27.0078 25.364 27.6172 25.6078 27.861 26.3391C28.2267 27.0703 28.1048 28.0453 27.7391 29.386C27.3734 30.8485 26.764 31.9454 26.0326 32.6766C25.3012 33.4079 24.5698 33.6516 23.5946 33.6516C22.7413 33.6516 22.1318 33.286 21.888 32.6766C21.6442 32.0672 21.6442 30.9704 22.1318 29.386L27.6172 10.2514C27.9829 9.0326 27.861 8.05759 27.2516 7.20445C26.6421 6.35132 25.7888 5.98569 24.5698 5.98569H18.4749L11.2829 31.2141C7.26025 44.9861 21.2785 44.0111 21.2785 44.0111C21.2785 44.0111 33.9559 44.2549 38.1005 29.6297C39.3195 25.364 39.3195 21.8296 37.9786 19.0265Z" fill="#C4C4C4"/>
<path d="M38.1005 29.6297C39.3195 25.364 39.3195 21.8296 37.9786 19.0265C36.6377 16.3452 34.1997 15.0045 30.9085 15.0045L26.1544 15.0049L23.2289 25.3644L26.1545 25.364C27.0078 25.364 27.6172 25.6078 27.861 26.3391C28.2267 27.0703 28.1048 28.0453 27.7391 29.386" fill="#C4C4C4"/>
</mask>
<g mask="url(#mask0)">
<rect width="50" height="50" fill="#C4C4C4"/>
</g>
<defs>
<linearGradient id="paint0_linear" x1="33.0813" y1="24.68" x2="29.1695" y2="20.4297" gradientUnits="userSpaceOnUse">
<stop stop-color="#D62616" stop-opacity="0"/>
<stop offset="1" stop-color="#D62616"/>
</linearGradient>
</defs>
</svg>
