<svg width="108" height="30" viewBox="0 0 108 30" fill="none" xmlns="http://www.w3.org/2000/svg">
<g clip-path="url(#clip0)">
<path d="M44.4311 7.30753H42.6038L39.4302 18.4614H42.9885L45.6813 9.0383C45.7775 8.55753 45.7775 8.17291 45.4889 7.7883C45.2004 7.49984 44.9119 7.30753 44.4311 7.30753Z" fill="#433F3F"/>
<path d="M46.8352 4.80761C46.5467 5.76915 45.4888 6.53838 44.5271 6.53838C43.5654 6.53838 42.9884 5.76915 43.2769 4.80761C43.5654 3.84607 44.6233 3.07684 45.585 3.07684C46.5467 2.98068 47.1238 3.74991 46.8352 4.80761Z" fill="#433F3F"/>
<path d="M61.3571 6.63464C60.6839 6.63464 59.9145 6.73079 59.3375 7.01926C59.049 7.11541 58.7605 7.30772 58.472 7.50002L59.2413 4.61541C59.3375 4.13464 59.3375 3.75002 59.049 3.36541C58.7605 3.07695 58.472 2.88464 57.9911 2.88464H56.26L51.8362 18.3654H55.2983L57.0294 12.4039C57.3179 11.4423 57.7026 10.7693 58.1835 10.3846C58.6643 9.90387 59.1452 9.71156 59.8184 9.71156C60.3954 9.71156 60.7801 9.90387 60.9724 10.3846C61.1648 10.8654 61.1648 11.5385 60.8763 12.4039L59.1452 18.3654H62.6073L64.2422 12.5C64.7231 10.7693 64.7231 9.32695 64.1461 8.1731C63.6652 7.21156 62.7035 6.63464 61.3571 6.63464Z" fill="#433F3F"/>
<path d="M92.805 6.63463C91.0739 6.63463 89.5352 7.1154 88.1888 7.98078C87.6118 7.1154 86.7462 6.63463 85.496 6.63463C84.8228 6.63463 84.0535 6.73078 83.4764 7.01924C83.0917 7.21155 82.7071 7.40386 82.4185 7.69232C82.4185 7.50001 82.3224 7.3077 82.2262 7.21155C82.0339 6.92309 81.6492 6.73078 81.1683 6.73078H79.4372L75.9751 18.4616H79.4372L81.1683 12.5C81.4568 11.5385 81.8415 10.8654 82.3224 10.4808C82.8032 10 83.2841 9.8077 83.9573 9.8077C84.5343 9.8077 84.919 10 85.1113 10.4808C85.3037 10.9616 85.3037 11.6346 85.0152 12.5L83.2841 18.4616H86.7462L88.4773 12.5C88.7658 11.5385 89.1505 10.8654 89.6314 10.4808C90.1122 10 90.5931 9.8077 91.2663 9.8077C91.8433 9.8077 92.228 10 92.4203 10.4808C92.6127 10.9616 92.6127 11.6346 92.3242 12.5L90.5931 18.4616H94.0552L95.6901 12.5962C96.171 10.8654 96.171 9.42309 95.594 8.26924C95.1131 7.21155 94.1514 6.63463 92.805 6.63463Z" fill="#433F3F"/>
<path d="M65.3002 13.3654L67.2236 6.63463H70.6857L68.7623 13.3654C68.1853 15.3846 70.1087 15.3846 70.1087 15.3846C70.1087 15.3846 72.0321 15.4808 72.6092 13.3654L74.5326 6.63463H77.8986L75.9751 13.3654C74.4364 18.6539 69.147 18.4615 69.147 18.4615C69.147 18.4615 63.7614 18.75 65.3002 13.3654Z" fill="#433F3F"/>
<path d="M107.615 12.5962C108.096 10.8654 108.096 9.4231 107.519 8.26925C106.942 7.21156 105.98 6.63464 104.634 6.63464C103.961 6.63464 103.191 6.73079 102.614 7.01925C102.326 7.11541 102.037 7.30772 101.749 7.50002L102.518 4.61541C102.614 4.13464 102.614 3.75002 102.326 3.36541C102.037 3.07695 101.749 2.88464 101.268 2.88464H99.5369L96.6518 13.1731C95.0169 18.75 100.691 18.3654 100.691 18.3654C100.691 18.3654 105.884 18.5577 107.615 12.5962ZM104.153 12.5C103.865 13.4616 103.48 14.1346 102.999 14.7116C102.518 15.1923 102.037 15.3846 101.364 15.3846C100.787 15.3846 100.402 15.1923 100.21 14.7116C100.018 14.2308 100.018 13.5577 100.306 12.5C100.595 11.5385 100.98 10.8654 101.46 10.4808C101.941 10 102.422 9.80771 103.095 9.80771C103.672 9.80771 104.057 10 104.249 10.4808C104.442 10.9616 104.442 11.6346 104.153 12.5Z" fill="#433F3F"/>
<path d="M52.0284 4.7115C52.1246 4.23073 52.1246 3.84611 51.836 3.4615C51.5475 3.07688 51.259 2.98073 50.7782 2.98073H49.0471L45.2964 16.0577C44.8156 17.8846 45.6811 18.2692 46.5466 18.3653C47.1237 18.3653 47.893 18.4615 48.5662 18.4615C49.0471 18.4615 49.4318 18.4615 49.8165 18.4615H50.2011L50.9705 15.673H49.4318C49.0471 15.673 49.0471 15.4807 49.0471 15.3846L50.682 9.7115H51.1628C51.6437 9.7115 52.1246 9.51919 52.5092 9.23073C52.9901 8.94227 53.2786 8.4615 53.3748 7.98073L53.6633 7.01919H51.5475L52.0284 4.7115Z" fill="#433F3F"/>
<path d="M39.8148 12.5961C40.2956 10.8653 40.2956 9.42303 39.7186 8.26919C39.1416 7.2115 38.1799 6.63457 36.8335 6.63457C36.1603 6.63457 35.3909 6.73073 34.8139 7.01919C34.5254 7.11534 34.2369 7.30765 33.9484 7.49996L34.7177 4.61534C34.9101 4.23073 34.9101 3.84611 34.6216 3.4615C34.333 3.17304 34.0445 2.98073 33.5637 2.98073H31.8326L28.9475 13.2692C27.3126 18.8461 32.9866 18.4615 32.9866 18.4615C32.9866 18.4615 38.0837 18.5576 39.8148 12.5961ZM36.3526 12.5C36.0641 13.4615 35.6794 14.1346 35.1986 14.7115C34.7177 15.1923 34.2369 15.3846 33.5637 15.3846C32.9866 15.3846 32.602 15.1923 32.4096 14.7115C32.2173 14.2307 32.2173 13.5576 32.5058 12.5C32.7943 11.5384 33.179 10.8653 33.6598 10.4807C34.1407 9.99996 34.6216 9.80765 35.2948 9.80765C35.8718 9.80765 36.2565 9.99996 36.4488 10.4807C36.6411 10.9615 36.6411 11.6346 36.3526 12.5Z" fill="#433F3F"/>
<path d="M0.0962317 12.1153C-0.480794 13.9423 0.577087 15.2884 2.30816 15.2884H3.1737L5.48181 7.11535H4.80861C2.98136 7.11535 1.5388 7.11535 1.5388 7.11535L0.0962317 12.1153Z" fill="#D62817"/>
<path d="M22.1194 10.2885C21.0615 8.17308 19.1381 7.11538 16.5415 7.11538H11.5406L9.23247 15.2885H12.7908C13.464 15.2885 13.9448 15.4808 14.1372 16.0577C14.4257 16.6346 14.3295 17.4038 14.041 18.4615C13.7525 19.6154 13.2716 20.4808 12.6946 21.0577C12.1176 21.6346 11.5406 21.8269 10.7712 21.8269C10.098 21.8269 9.61715 21.5385 9.42481 21.0577C9.23247 20.5769 9.23247 19.7115 9.61715 18.4615L13.9448 3.36538C14.2334 2.40385 14.1372 1.63462 13.6563 0.961538C13.1755 0.288462 12.5023 0 11.5406 0H6.73202L1.05793 19.9038C-2.11571 30.7692 8.94395 30 8.94395 30C8.94395 30 18.9457 30.1923 22.2155 18.6538C23.1773 15.2885 23.1773 12.5 22.1194 10.2885Z" fill="#EC7000"/>
<path d="M22.2155 18.6538C23.1772 15.2884 23.1772 12.5 22.1194 10.2884C21.0615 8.17304 19.1381 7.11535 16.5414 7.11535H12.7908L10.4827 15.2884H12.7908C13.464 15.2884 13.9448 15.4807 14.1372 16.0577C14.4257 16.6346 14.3295 17.4038 14.041 18.4615" fill="url(#paint0_linear)"/>
<path d="M106.75 26.3463H87.5154C86.9384 26.3463 86.5537 25.9617 86.5537 25.3847C86.5537 24.8078 86.9384 24.4232 87.5154 24.4232H106.75C107.327 24.4232 107.711 24.8078 107.711 25.3847C107.711 25.9617 107.23 26.3463 106.75 26.3463Z" fill="#EC7000"/>
<path d="M49.0472 26.3463H29.813C29.236 26.3463 28.8513 25.9617 28.8513 25.3847C28.8513 24.8078 29.236 24.4232 29.813 24.4232H49.0472C49.6242 24.4232 50.0089 24.8078 50.0089 25.3847C50.0089 25.9617 49.5281 26.3463 49.0472 26.3463Z" fill="#EC7000"/>
<path d="M64.2239 25.4959C64.2239 24.4323 64.3134 23.5682 63.488 22.7801C63.0006 22.3148 62.3144 22.1154 61.5785 22.1154H58.9529V28.8764H61.5785C62.3144 28.8764 63.0006 28.677 63.488 28.2117C64.3134 27.4235 64.2239 26.5594 64.2239 25.4959ZM62.4835 25.4959C62.4835 26.6449 62.4338 26.8253 62.2945 27.0152C62.1354 27.2431 61.8967 27.3951 61.4591 27.3951H60.6933V23.5967H61.4591C61.8967 23.5967 62.1354 23.7486 62.2945 23.9765C62.4338 24.1665 62.4835 24.3564 62.4835 25.4959Z" fill="#EC7000"/>
<path d="M70.1944 28.8764V27.395H67.1213V26.208H69.7469V24.7267H67.1213V23.5967H70.1944V22.1153H65.3809V28.543C65.3809 28.7271 65.5296 28.8764 65.7132 28.8764H70.1944Z" fill="#EC7000"/>
<path d="M77.5199 28.8764L75.3121 25.4104L77.3807 22.1154H75.4016L74.3673 24.024L73.333 22.1154H71.3538L73.4225 25.4104L71.2146 28.8764H73.2037L74.3673 26.7968L75.5309 28.8764H77.5199Z" fill="#EC7000"/>
</g>
<defs>
<linearGradient id="paint0_linear" x1="18.2556" y1="14.7484" x2="15.1694" y2="11.3952" gradientUnits="userSpaceOnUse">
<stop stop-color="#D62616" stop-opacity="0"/>
<stop offset="1" stop-color="#D62616"/>
</linearGradient>
<clipPath id="clip0">
<rect width="108" height="30" fill="white"/>
</clipPath>
</defs>
</svg>
