<svg width="30" height="30" viewBox="0 0 30 30" fill="none" xmlns="http://www.w3.org/2000/svg">
<circle opacity="0.1" cx="15" cy="15" r="15" fill="#121932"/>
<path d="M17.9167 16.6667H17.2584L17.025 16.4417C18.025 15.275 18.5417 13.6834 18.2584 11.9917C17.8667 9.67503 15.9334 7.82503 13.6 7.5417C10.075 7.10837 7.10837 10.075 7.5417 13.6C7.82503 15.9334 9.67503 17.8667 11.9917 18.2584C13.6834 18.5417 15.275 18.025 16.4417 17.025L16.6667 17.2584V17.9167L20.2084 21.4584C20.55 21.8 21.1084 21.8 21.45 21.4584C21.7917 21.1167 21.7917 20.5584 21.45 20.2167L17.9167 16.6667ZM12.9167 16.6667C10.8417 16.6667 9.1667 14.9917 9.1667 12.9167C9.1667 10.8417 10.8417 9.1667 12.9167 9.1667C14.9917 9.1667 16.6667 10.8417 16.6667 12.9167C16.6667 14.9917 14.9917 16.6667 12.9167 16.6667Z" fill="white"/>
</svg>
